<svg width="386" height="57" viewBox="0 0 386 57" fill="none" xmlns="http://www.w3.org/2000/svg">
<path d="M55.112 45H35.976L22.408 27.08H16.648V45H0.84V0.839996H16.648V23.624L36.232 0.839996H53.96L34.696 21.576L55.112 45ZM70.186 45.96C65.6633 45.96 62.2287 45.1067 59.882 43.4C57.578 41.6507 56.426 39.1333 56.426 35.848C56.426 32.8187 57.5567 30.4507 59.818 28.744C62.122 27.0373 66.0687 26.184 71.658 26.184C75.0713 26.184 79.2953 26.312 84.33 26.568V24.712C84.33 23.176 83.8393 22.0667 82.858 21.384C81.9193 20.7013 80.4047 20.36 78.314 20.36C76.266 20.36 74.7727 20.616 73.834 21.128C72.8953 21.64 72.234 22.6 71.85 24.008H57.514C57.8127 19.6133 59.6473 16.52 63.018 14.728C66.4313 12.936 71.722 12.04 78.89 12.04C85.7167 12.04 90.858 13.0427 94.314 15.048C97.77 17.0533 99.498 20.232 99.498 24.584V45H84.33V39.24H83.498C81.194 43.72 76.7567 45.96 70.186 45.96ZM77.034 38.536C79.1673 38.536 80.9167 38.0667 82.282 37.128C83.6473 36.1893 84.33 34.696 84.33 32.648V31.752C80.746 31.5813 78.4847 31.496 77.546 31.496C75.114 31.496 73.4927 31.816 72.682 32.456C71.8713 33.096 71.466 33.9493 71.466 35.016C71.466 37.3627 73.322 38.536 77.034 38.536ZM134.505 45.96C127.507 45.96 123.177 43.3787 121.513 38.216H120.681V56.52H105.513V13H120.681V19.784H121.513C123.177 14.6213 127.507 12.04 134.505 12.04C140.137 12.04 144.275 13.2987 146.921 15.816C149.566 18.3333 150.889 22.7707 150.889 29.128C150.889 35.4427 149.566 39.8373 146.921 42.312C144.275 44.744 140.137 45.96 134.505 45.96ZM127.785 20.808C123.049 20.808 120.681 22.8773 120.681 27.016V30.984C120.681 35.1227 123.049 37.192 127.785 37.192C130.686 37.192 132.734 36.6587 133.929 35.592C135.123 34.4827 135.721 32.328 135.721 29.128C135.721 25.8427 135.102 23.6453 133.865 22.536C132.67 21.384 130.643 20.808 127.785 20.808ZM153.768 13H194.472V22.344H181.672V45H166.504V22.344H153.768V13ZM220.218 37.128C222.863 37.128 224.783 36.552 225.978 35.4C227.215 34.2053 227.833 32.136 227.833 29.192C227.833 26.0773 227.215 23.9227 225.978 22.728C224.783 21.4907 222.863 20.872 220.218 20.872C217.53 20.872 215.588 21.4907 214.394 22.728C213.199 23.9227 212.602 26.0773 212.602 29.192C212.602 32.136 213.199 34.2053 214.394 35.4C215.588 36.552 217.53 37.128 220.218 37.128ZM202.81 15.88C206.436 13.32 212.239 12.04 220.218 12.04C228.196 12.04 233.978 13.32 237.562 15.88C241.188 18.3973 243.002 22.8347 243.002 29.192C243.002 35.3787 241.188 39.7307 237.562 42.248C233.935 44.7227 228.154 45.96 220.218 45.96C212.282 45.96 206.5 44.7227 202.874 42.248C199.247 39.7307 197.434 35.3787 197.434 29.192C197.434 22.8347 199.226 18.3973 202.81 15.88ZM248.06 25.544V13H263.228V24.2C263.228 26.632 264.764 27.848 267.836 27.848C269.927 27.848 272.06 27.6133 274.236 27.144V13H289.404V45H274.236V35.08C270.481 36.0187 266.94 36.488 263.612 36.488C258.236 36.488 254.289 35.464 251.772 33.416C249.297 31.3253 248.06 28.7013 248.06 25.544ZM339.539 13L327.187 27.784L340.691 45H323.539L314.579 31.688H310.931V45H295.763V13H310.931V29.192L322.899 13H339.539ZM385.232 45H370.704V29.192L354.512 45H343.888V13H358.48V28.744L374.096 13H385.232V45Z" fill="black"/>
</svg>
