<svg width="376" height="376" viewBox="0 0 376 376" fill="none" xmlns="http://www.w3.org/2000/svg">
<rect width="376" height="376" fill="black"/>
<path d="M52.0018 187.949C52.0018 180.908 57.6991 176.101 66.2791 176.101C69.1951 176.112 72.0789 176.71 74.7573 177.861L73.4686 181.416C71.2767 180.404 68.897 179.862 66.4825 179.825C60.6834 179.825 57.6991 182.871 57.6991 187.949C57.5766 188.954 57.6637 189.974 57.9548 190.944C58.2459 191.914 58.7349 192.813 59.3909 193.586C60.0469 194.358 60.8559 194.987 61.767 195.432C62.6781 195.878 63.6716 196.131 64.6852 196.174C66.3313 196.226 67.9433 195.698 69.239 194.683C70.5347 193.669 71.4316 192.231 71.7729 190.623H65.3295V186.798H77.0634V199.424H73.2651V193.703C72.5736 195.613 71.2817 197.248 69.5826 198.365C67.8834 199.481 65.868 200.019 63.8373 199.898C62.269 199.907 60.7146 199.604 59.2656 199.005C57.8166 198.406 56.5021 197.524 55.3994 196.41C54.2968 195.297 53.4282 193.975 52.8447 192.522C52.2612 191.069 51.9746 189.514 52.0018 187.949Z" fill="white"/>
<path d="M125.084 189.709C124.671 192.952 124.843 196.242 125.593 199.425H120.167C119.606 196.778 119.4 194.069 119.556 191.368H87.4745V199.425H82.7267V176.508H114.605C121.591 176.508 125.389 178.979 125.389 183.887C125.429 185.161 125.058 186.414 124.332 187.462C123.605 188.51 122.562 189.297 121.353 189.709H125.084ZM87.4745 180.13V187.678H114.13C118.267 187.678 120.336 186.595 120.336 183.819C120.336 181.044 118.437 180.062 114.266 180.062L87.4745 180.13Z" fill="white"/>
<path d="M130.238 187.949C130.238 180.773 135.901 176 144.074 176C152.247 176 157.945 180.908 157.945 187.949C157.945 194.99 152.214 199.898 144.074 199.898C135.935 199.898 130.238 195.126 130.238 187.949ZM152.824 187.949C152.845 186.825 152.626 185.71 152.182 184.677C151.737 183.644 151.078 182.717 150.247 181.958C149.416 181.2 148.433 180.626 147.363 180.276C146.293 179.925 145.16 179.806 144.041 179.927C142.939 179.855 141.834 180.01 140.795 180.382C139.756 180.754 138.804 181.334 137.998 182.088C137.193 182.841 136.551 183.752 136.112 184.763C135.673 185.774 135.446 186.864 135.446 187.966C135.446 189.068 135.673 190.158 136.112 191.169C136.551 192.181 137.193 193.091 137.998 193.845C138.804 194.598 139.756 195.179 140.795 195.55C141.834 195.922 142.939 196.077 144.041 196.006C145.163 196.126 146.299 196.007 147.371 195.654C148.444 195.302 149.428 194.725 150.26 193.963C151.091 193.2 151.75 192.269 152.192 191.232C152.634 190.195 152.85 189.076 152.824 187.949Z" fill="white"/>
<path d="M165.711 176.508L172.494 193.941L179.277 176.508H183.991L190.773 193.738L192.944 186.968H197.827L194.029 199.492H187.653L181.752 182.939L175.75 199.425H169.272L160.523 176.508H165.711Z" fill="white"/>
<path d="M196.301 176.508H226.246L224.414 180.468H212.443V199.425H207.56V180.468H195.012L196.301 176.508Z" fill="white"/>
<path d="M238.115 176.508L248.696 199.425H243.372L241.201 194.449H228.993L226.653 199.492H221.362L231.943 176.508H238.115ZM239.777 190.759L235.131 179.622L230.383 190.759H239.777Z" fill="white"/>
<path d="M254.089 194.076C256.741 195.413 259.664 196.131 262.635 196.175C266.433 196.175 268.468 195.024 268.468 193.433C268.468 189.1 253.309 190.048 253.309 182.33C253.309 178.505 257.107 176 263.211 176C266.521 176.004 269.796 176.672 272.843 177.963L271.486 181.687C268.891 180.534 266.086 179.923 263.245 179.893C259.854 179.893 258.498 180.739 258.498 182.262C258.498 186.798 273.589 186.291 273.589 193.636C273.589 197.36 269.587 200 262.703 200C259.273 200.003 255.883 199.264 252.766 197.834L254.089 194.076Z" fill="white"/>
<path d="M284.101 176.508V186.155H307.331L317.709 176.508H324.05L312.961 186.663L325 199.323H318.862L309.739 189.676H284.135V199.357H279.218V176.508H284.101Z" fill="white"/>
<path d="M144.075 190.725C145.723 190.725 147.059 189.391 147.059 187.746C147.059 186.101 145.723 184.767 144.075 184.767C142.427 184.767 141.091 186.101 141.091 187.746C141.091 189.391 142.427 190.725 144.075 190.725Z" fill="white"/>
</svg>
