<svg width="285" height="58" viewBox="0 0 285 58" fill="none" xmlns="http://www.w3.org/2000/svg">
<path d="M0.24 23.3433C0.24 16.6019 2.33067 11.7166 6.512 8.68727C10.6933 5.61527 17.328 4.07927 26.416 4.07927H32.176V0.0472641H47.408V4.07927H53.168C62.256 4.07927 68.8693 5.61527 73.008 8.68727C77.1893 11.7166 79.28 16.6019 79.28 23.3433C79.28 30.1273 77.1467 35.1406 72.88 38.3833C68.6133 41.6259 62.1707 43.2473 53.552 43.2473H47.408V47.7913H32.176V43.2473H26.032C17.4133 43.2473 10.9493 41.6259 6.64 38.3833C2.37333 35.1406 0.24 30.1273 0.24 23.3433ZM16.176 23.6633C16.176 26.9486 17.136 29.2953 19.056 30.7033C20.976 32.1113 23.8773 32.8153 27.76 32.8153H32.176V14.5113H28.144C23.7067 14.5113 20.592 15.1726 18.8 16.4953C17.0507 17.8179 16.176 20.2073 16.176 23.6633ZM51.376 14.5113H47.408V32.8153H51.824C55.7067 32.8153 58.608 32.1113 60.528 30.7033C62.448 29.2953 63.408 26.9486 63.408 23.6633C63.408 20.2073 62.512 17.8179 60.72 16.4953C58.9707 15.1726 55.856 14.5113 51.376 14.5113ZM106.843 38.1273C109.488 38.1273 111.408 37.5513 112.603 36.3993C113.84 35.2046 114.458 33.1353 114.458 30.1913C114.458 27.0766 113.84 24.9219 112.603 23.7273C111.408 22.4899 109.488 21.8713 106.843 21.8713C104.155 21.8713 102.213 22.4899 101.019 23.7273C99.8238 24.9219 99.2265 27.0766 99.2265 30.1913C99.2265 33.1353 99.8238 35.2046 101.019 36.3993C102.213 37.5513 104.155 38.1273 106.843 38.1273ZM89.4345 16.8793C93.0612 14.3193 98.8638 13.0393 106.843 13.0393C114.821 13.0393 120.603 14.3193 124.187 16.8793C127.813 19.3966 129.627 23.8339 129.627 30.1913C129.627 36.3779 127.813 40.7299 124.187 43.2473C120.56 45.7219 114.779 46.9593 106.843 46.9593C98.9065 46.9593 93.1252 45.7219 89.4985 43.2473C85.8718 40.7299 84.0585 36.3779 84.0585 30.1913C84.0585 23.8339 85.8505 19.3966 89.4345 16.8793ZM164.317 46.9593C157.32 46.9593 152.989 44.3779 151.325 39.2153H150.493V57.5193H135.325V13.9993H150.493V20.7833H151.325C152.989 15.6206 157.32 13.0393 164.317 13.0393C169.949 13.0393 174.088 14.2979 176.733 16.8153C179.378 19.3326 180.701 23.7699 180.701 30.1273C180.701 36.4419 179.378 40.8366 176.733 43.3113C174.088 45.7433 169.949 46.9593 164.317 46.9593ZM157.597 21.8073C152.861 21.8073 150.493 23.8766 150.493 28.0153V31.9833C150.493 36.1219 152.861 38.1913 157.597 38.1913C160.498 38.1913 162.546 37.6579 163.741 36.5913C164.936 35.4819 165.533 33.3273 165.533 30.1273C165.533 26.8419 164.914 24.6446 163.677 23.5353C162.482 22.3833 160.456 21.8073 157.597 21.8073ZM211.413 39.4073L200.597 30.7033V45.9993H186.325V13.9993H197.333L211.349 26.2873L225.493 13.9993H236.501V45.9993H222.165V30.7033L211.413 39.4073ZM255.561 46.9593C251.038 46.9593 247.604 46.1059 245.257 44.3993C242.953 42.6499 241.801 40.1326 241.801 36.8473C241.801 33.8179 242.932 31.4499 245.193 29.7433C247.497 28.0366 251.444 27.1833 257.033 27.1833C260.446 27.1833 264.67 27.3113 269.705 27.5673V25.7113C269.705 24.1753 269.214 23.0659 268.233 22.3833C267.294 21.7006 265.78 21.3593 263.689 21.3593C261.641 21.3593 260.148 21.6153 259.209 22.1273C258.27 22.6393 257.609 23.5993 257.225 25.0073H242.889C243.188 20.6126 245.022 17.5193 248.393 15.7273C251.806 13.9353 257.097 13.0393 264.265 13.0393C271.092 13.0393 276.233 14.0419 279.689 16.0473C283.145 18.0526 284.873 21.2313 284.873 25.5833V45.9993H269.705V40.2393H268.873C266.569 44.7193 262.132 46.9593 255.561 46.9593ZM262.409 39.5353C264.542 39.5353 266.292 39.0659 267.657 38.1273C269.022 37.1886 269.705 35.6953 269.705 33.6473V32.7513C266.121 32.5806 263.86 32.4953 262.921 32.4953C260.489 32.4953 258.868 32.8153 258.057 33.4553C257.246 34.0953 256.841 34.9486 256.841 36.0153C256.841 38.3619 258.697 39.5353 262.409 39.5353Z" fill="#1A1A1A"/>
</svg>
