<svg width="307" height="47" viewBox="0 0 307 47" fill="none" xmlns="http://www.w3.org/2000/svg">
<path d="M43.144 28.272H59.016C58.504 32.9653 57.3947 36.6133 55.688 39.216C53.9813 41.776 51.08 43.7173 46.984 45.04C42.9307 46.32 37.2133 46.96 29.832 46.96C24.2853 46.96 19.6987 46.6187 16.072 45.936C12.4453 45.2107 9.39467 43.9733 6.92 42.224C4.44533 40.432 2.67467 38.064 1.608 35.12C0.541334 32.176 0.00800014 28.464 0.00800014 23.984C0.00800014 19.376 0.562667 15.5787 1.672 12.592C2.824 9.56266 4.65867 7.19466 7.176 5.488C9.736 3.73867 12.7867 2.544 16.328 1.904C19.912 1.22133 24.4133 0.879997 29.832 0.879997C36.7867 0.879997 42.2693 1.47733 46.28 2.672C50.2907 3.824 53.2347 5.65866 55.112 8.176C56.9893 10.6507 58.184 14.1067 58.696 18.544H42.888C42.504 15.856 41.3733 14.0853 39.496 13.232C37.6187 12.336 34.3973 11.888 29.832 11.888C27.0587 11.888 24.8827 12.016 23.304 12.272C21.768 12.528 20.3813 13.0827 19.144 13.936C17.9067 14.7467 17.0533 15.9627 16.584 17.584C16.1147 19.1627 15.88 21.296 15.88 23.984C15.88 26.544 16.1147 28.6133 16.584 30.192C17.0533 31.7707 17.8853 32.9867 19.08 33.84C20.3173 34.6933 21.7253 35.2693 23.304 35.568C24.9253 35.824 27.1013 35.952 29.832 35.952C34.4827 35.952 37.7893 35.44 39.752 34.416C41.7147 33.392 42.8453 31.344 43.144 28.272ZM64.7 46V14H107.388V46H92.22V23.344H79.868V46H64.7ZM155.107 46H140.579V30.192L124.387 46H113.763V14H128.355V29.744L143.971 14H155.107V46ZM190.312 33.008H205.225C204.883 38.128 202.963 41.7333 199.465 43.824C195.966 45.9147 190.633 46.96 183.465 46.96C175.571 46.96 169.811 45.7227 166.185 43.248C162.601 40.7307 160.809 36.3787 160.809 30.192C160.809 23.8347 162.601 19.3973 166.185 16.88C169.769 14.32 175.529 13.04 183.465 13.04C190.59 13.04 195.902 14.064 199.401 16.112C202.899 18.1173 204.819 21.616 205.161 26.608H190.185C189.843 23.4507 187.603 21.872 183.465 21.872C180.862 21.872 178.963 22.4907 177.769 23.728C176.574 24.9227 175.977 27.0773 175.977 30.192C175.977 33.136 176.574 35.2053 177.769 36.4C178.963 37.5947 180.862 38.1707 183.465 38.128C187.689 38.128 189.971 36.4213 190.312 33.008ZM232.593 38.128C235.238 38.128 237.158 37.552 238.353 36.4C239.59 35.2053 240.208 33.136 240.208 30.192C240.208 27.0773 239.59 24.9227 238.353 23.728C237.158 22.4907 235.238 21.872 232.593 21.872C229.905 21.872 227.963 22.4907 226.769 23.728C225.574 24.9227 224.977 27.0773 224.977 30.192C224.977 33.136 225.574 35.2053 226.769 36.4C227.963 37.552 229.905 38.128 232.593 38.128ZM215.185 16.88C218.811 14.32 224.614 13.04 232.593 13.04C240.571 13.04 246.353 14.32 249.937 16.88C253.563 19.3973 255.377 23.8347 255.377 30.192C255.377 36.3787 253.563 40.7307 249.937 43.248C246.31 45.7227 240.529 46.96 232.593 46.96C224.657 46.96 218.875 45.7227 215.249 43.248C211.622 40.7307 209.809 36.3787 209.809 30.192C209.809 23.8347 211.601 19.3973 215.185 16.88ZM304.851 14L292.499 28.784L306.003 46H288.851L279.891 32.688H276.243V46H261.075V14H276.243V30.192L288.211 14H304.851Z" fill="black"/>
</svg>
