<svg width="182" height="16" viewBox="0 0 182 16" fill="none" xmlns="http://www.w3.org/2000/svg">
<path d="M0.00117533 7.96583C0.00117533 3.2719 3.79941 0.0673828 9.51938 0.0673828C11.4634 0.0743634 13.3859 0.473519 15.1715 1.24087L14.3124 3.6104C12.8511 2.93621 11.2646 2.57491 9.65503 2.54975C5.78897 2.54975 3.79941 4.58078 3.79941 7.96583C3.71774 8.63599 3.77577 9.31578 3.96986 9.96249C4.16396 10.6092 4.48992 11.2089 4.92727 11.7238C5.36463 12.2388 5.90394 12.6579 6.51133 12.9549C7.11872 13.2519 7.78106 13.4203 8.45678 13.4496C9.55422 13.484 10.6288 13.1321 11.4926 12.4556C12.3564 11.779 12.9544 10.8208 13.182 9.74862H8.88634V7.19855H16.7089V15.616H14.1767V11.8022C13.7157 13.0753 12.8545 14.1654 11.7217 14.9097C10.5889 15.654 9.24534 16.0126 7.89156 15.932C6.84601 15.9381 5.80976 15.7356 4.84373 15.3364C3.87771 14.9371 3.00139 14.3491 2.26628 13.6069C1.53117 12.8647 0.952107 11.9834 0.563122 11.0146C0.174137 10.0459 -0.016922 9.00932 0.00117533 7.96583Z" fill="black"/>
<path d="M48.7225 9.13975C48.4473 11.3016 48.5622 13.4951 49.0616 15.6165H45.4442C45.0703 13.8521 44.9334 12.0459 45.0373 10.2455H23.6496V15.6165H20.4844V0.338623H41.7364C46.3938 0.338623 48.9259 1.98601 48.9259 5.25822C48.9523 6.10735 48.7053 6.94254 48.221 7.64116C47.7368 8.33978 47.0409 8.86502 46.2355 9.13975H48.7225ZM23.6496 2.75329V7.78573H41.4199C44.1781 7.78573 45.5573 7.06358 45.5573 5.21309C45.5573 3.3626 44.2912 2.70816 41.5103 2.70816L23.6496 2.75329Z" fill="black"/>
<path d="M52.1588 7.96615C52.1588 3.18195 55.9344 0 61.3831 0C66.8318 0 70.63 3.27221 70.63 7.96615C70.63 12.6601 66.8092 15.9323 61.3831 15.9323C55.957 15.9323 52.1588 12.7503 52.1588 7.96615ZM67.2161 7.96615C67.23 7.21688 67.0841 6.47323 66.7878 5.78462C66.4916 5.09602 66.0519 4.47823 65.4981 3.97233C64.9442 3.46643 64.2888 3.08399 63.5754 2.85044C62.862 2.61689 62.107 2.53758 61.3605 2.61777C60.6261 2.57018 59.8896 2.67348 59.1968 2.92129C58.5039 3.1691 57.8694 3.55615 57.3324 4.05851C56.7954 4.56086 56.3673 5.16784 56.0747 5.84191C55.782 6.51597 55.6311 7.2428 55.6311 7.97743C55.6311 8.71206 55.782 9.43889 56.0747 10.113C56.3673 10.787 56.7954 11.394 57.3324 11.8964C57.8694 12.3987 58.5039 12.7858 59.1968 13.0336C59.8896 13.2814 60.6261 13.3847 61.3605 13.3371C62.1089 13.4176 62.8659 13.3377 63.5809 13.1028C64.2959 12.8679 64.9524 12.4835 65.5067 11.9751C66.061 11.4667 66.5002 10.8461 66.7949 10.1548C67.0897 9.46346 67.2333 8.7173 67.2161 7.96615Z" fill="black"/>
<path d="M75.8077 0.338623L80.3295 11.9606L84.8512 0.338623H87.9938L92.5155 11.8252L93.9624 7.31183H97.218L94.6859 15.6616H90.4355L86.5016 4.62635L82.4999 15.6165H78.1816L72.3486 0.338623H75.8077Z" fill="black"/>
<path d="M96.2003 0.338623H116.164L114.943 2.97896H106.962V15.6165H103.706V2.97896H95.3412L96.2003 0.338623Z" fill="black"/>
<path d="M124.077 0.338623L131.131 15.6165H127.581L126.134 12.2991H117.995L116.435 15.6616H112.908L119.962 0.338623H124.077ZM125.185 9.83933L122.087 2.41479L118.922 9.83933H125.185Z" fill="black"/>
<path d="M134.726 12.0508C136.494 12.9422 138.443 13.4206 140.423 13.4499C142.956 13.4499 144.312 12.6826 144.312 11.622C144.312 8.73342 134.206 9.3653 134.206 4.22003C134.206 1.66996 136.738 0 140.808 0C143.014 0.00289311 145.198 0.447985 147.229 1.30889L146.324 3.79125C144.594 3.02265 142.724 2.61562 140.83 2.5952C138.57 2.5952 137.665 3.15938 137.665 4.17489C137.665 7.19887 147.726 6.86036 147.726 11.7574C147.726 14.2398 145.058 16 140.469 16C138.182 16.0019 135.922 15.5092 133.844 14.5557L134.726 12.0508Z" fill="black"/>
<path d="M154.734 0.338623V6.77022H170.221L177.139 0.338623H181.367L173.974 7.10872L182 15.5488H177.908L171.826 9.11718H154.757V15.5713H151.479V0.338623H154.734Z" fill="black"/>
<path d="M61.3835 9.81676C62.4823 9.81676 63.373 8.92764 63.373 7.83087C63.373 6.73409 62.4823 5.84497 61.3835 5.84497C60.2847 5.84497 59.3939 6.73409 59.3939 7.83087C59.3939 8.92764 60.2847 9.81676 61.3835 9.81676Z" fill="black"/>
</svg>
