<svg width="569" height="53" viewBox="0 0 569 53" fill="none" xmlns="http://www.w3.org/2000/svg">
<path d="M30.264 32.064V23.568H66.984V30.624C66.984 38.304 64.44 43.8 59.352 47.112C54.312 50.424 45.84 52.08 33.936 52.08C27.936 52.08 22.896 51.672 18.816 50.856C14.784 50.04 11.328 48.648 8.448 46.68C5.616 44.712 3.552 42.072 2.256 38.76C1.008 35.4 0.384 31.224 0.384 26.232C0.384 21.048 1.056 16.776 2.4 13.416C3.744 10.008 5.88 7.344 8.808 5.424C11.736 3.504 15.168 2.16 19.104 1.392C23.088 0.623998 28.032 0.239997 33.936 0.239997C44.88 0.239997 52.872 1.68 57.912 4.56C62.952 7.44 65.856 12.192 66.624 18.816H48.912C48.576 16.32 47.376 14.664 45.312 13.848C43.296 13.032 39.504 12.624 33.936 12.624C30.768 12.624 28.296 12.768 26.52 13.056C24.744 13.344 23.16 13.968 21.768 14.928C20.424 15.84 19.488 17.208 18.96 19.032C18.48 20.808 18.24 23.208 18.24 26.232C18.24 29.16 18.48 31.512 18.96 33.288C19.488 35.016 20.424 36.36 21.768 37.32C23.16 38.28 24.792 38.928 26.664 39.264C28.584 39.552 31.176 39.696 34.44 39.696C40.104 39.696 44.088 39.168 46.392 38.112C48.696 37.008 49.848 35.016 49.848 32.136V32.064H30.264ZM134.85 51H113.466L95.1776 28.68H106.41C109.29 28.68 111.45 28.104 112.89 26.952C114.33 25.752 115.05 23.784 115.05 21.048C115.05 18.504 114.378 16.728 113.034 15.72C111.738 14.664 109.506 14.136 106.338 14.136H92.3696V51H74.5856V1.32H111.522C119.058 1.32 124.53 2.688 127.938 5.424C131.346 8.112 133.05 12.552 133.05 18.744C133.05 23.208 131.922 26.928 129.666 29.904C127.41 32.832 123.834 34.68 118.938 35.448L134.85 51ZM174.801 52.08C168.273 52.08 162.873 51.696 158.601 50.928C154.329 50.112 150.753 48.696 147.873 46.68C145.041 44.664 143.025 42.024 141.825 38.76C140.625 35.496 140.025 31.32 140.025 26.232C140.025 21.048 140.673 16.776 141.969 13.416C143.265 10.008 145.401 7.344 148.377 5.424C151.353 3.456 154.905 2.112 159.033 1.392C163.209 0.623998 168.465 0.239997 174.801 0.239997C181.185 0.239997 186.441 0.623998 190.569 1.392C194.745 2.112 198.321 3.456 201.297 5.424C204.273 7.344 206.409 10.008 207.705 13.416C209.001 16.776 209.649 21.048 209.649 26.232C209.649 31.32 209.025 35.496 207.777 38.76C206.577 42.024 204.537 44.664 201.657 46.68C198.825 48.696 195.273 50.112 191.001 50.928C186.777 51.696 181.377 52.08 174.801 52.08ZM166.593 38.976C168.609 39.264 171.345 39.408 174.801 39.408C178.257 39.408 180.969 39.264 182.937 38.976C184.953 38.64 186.657 37.992 188.049 37.032C189.489 36.072 190.449 34.752 190.929 33.072C191.457 31.392 191.721 29.112 191.721 26.232C191.721 23.256 191.457 20.904 190.929 19.176C190.449 17.448 189.489 16.128 188.049 15.216C186.657 14.256 184.977 13.632 183.009 13.344C181.041 13.056 178.305 12.912 174.801 12.912C171.249 12.912 168.513 13.056 166.593 13.344C164.673 13.584 162.993 14.184 161.553 15.144C160.113 16.104 159.129 17.448 158.601 19.176C158.121 20.904 157.881 23.256 157.881 26.232C157.881 29.112 158.121 31.392 158.601 33.072C159.129 34.752 160.089 36.072 161.481 37.032C162.921 37.992 164.625 38.64 166.593 38.976ZM211.035 1.32H230.115L242.139 29.688L253.515 1.32H264.531L276.267 29.184L287.787 1.32H306.723L284.187 51H270.867L259.131 23.496L247.899 51H234.579L211.035 1.32ZM371.561 1.32V15H349.241V51H331.457V15H309.137V1.32H371.561ZM365.227 51L392.083 1.32H409.075L435.787 51H415.771L412.675 44.232H387.331L384.163 51H365.227ZM400.147 17.16L392.227 33.864H407.851L400.147 17.16ZM469.178 52.08C460.922 52.08 454.49 51.48 449.882 50.28C445.274 49.08 442.034 47.256 440.162 44.808C438.29 42.312 437.378 38.904 437.426 34.584H455.93C456.074 37.128 457.058 38.856 458.882 39.768C460.754 40.68 464.114 41.136 468.962 41.136C474.29 41.136 477.818 40.8 479.546 40.128C481.322 39.456 482.21 38.328 482.21 36.744C482.21 35.496 481.706 34.632 480.698 34.152C479.69 33.624 478.106 33.216 475.946 32.928L455.714 30.048C449.762 29.232 445.418 27.696 442.682 25.44C439.994 23.184 438.65 19.944 438.65 15.72C438.65 13.368 439.106 11.304 440.018 9.528C440.93 7.752 442.466 6.144 444.626 4.704C446.834 3.264 449.954 2.16 453.986 1.392C458.018 0.623998 462.938 0.239997 468.746 0.239997C479.93 0.239997 487.73 1.464 492.146 3.912C496.61 6.36 498.962 10.752 499.202 17.088H481.706C481.514 14.688 480.53 13.08 478.754 12.264C477.026 11.448 473.786 11.04 469.034 11.04C465.53 11.04 462.794 11.232 460.826 11.616C458.858 12 457.61 12.456 457.082 12.984C456.602 13.464 456.362 14.088 456.362 14.856C456.362 15.912 456.818 16.728 457.73 17.304C458.642 17.832 460.178 18.264 462.338 18.6L480.77 20.976C487.586 21.888 492.53 23.4 495.602 25.512C498.722 27.624 500.282 30.912 500.282 35.376C500.282 37.632 500.042 39.576 499.562 41.208C499.082 42.792 498.17 44.328 496.826 45.816C495.53 47.256 493.73 48.408 491.426 49.272C489.17 50.136 486.17 50.808 482.426 51.288C478.73 51.816 474.314 52.08 469.178 52.08ZM568.626 51H547.098L531.834 30.84H525.354V51H507.57V1.32H525.354V26.952L547.386 1.32H567.33L545.658 24.648L568.626 51Z" fill="black"/>
</svg>
