<svg width="216" height="33" viewBox="0 0 216 33" fill="none" xmlns="http://www.w3.org/2000/svg">
<path d="M20.4764 21.604L10.0264 12.484V27H0.640352V0.779998H7.97435L20.5524 12.18L33.0164 0.779998H40.3124V27H30.8884V12.522L20.4764 21.604ZM57.5676 22.326C59.1383 22.326 60.2783 21.984 60.9876 21.3C61.7223 20.5907 62.0896 19.362 62.0896 17.614C62.0896 15.7647 61.7223 14.4853 60.9876 13.776C60.2783 13.0413 59.1383 12.674 57.5676 12.674C55.9716 12.674 54.819 13.0413 54.1096 13.776C53.4003 14.4853 53.0456 15.7647 53.0456 17.614C53.0456 19.362 53.4003 20.5907 54.1096 21.3C54.819 21.984 55.9716 22.326 57.5676 22.326ZM47.2316 9.71C49.385 8.19 52.8303 7.43 57.5676 7.43C62.305 7.43 65.7376 8.19 67.8656 9.71C70.019 11.2047 71.0956 13.8393 71.0956 17.614C71.0956 21.2873 70.019 23.8713 67.8656 25.366C65.7123 26.8353 62.2796 27.57 57.5676 27.57C52.8556 27.57 49.423 26.8353 47.2696 25.366C45.1163 23.8713 44.0396 21.2873 44.0396 17.614C44.0396 13.8393 45.1036 11.2047 47.2316 9.71ZM77.4547 14.498V8H99.8747V21.452H103.637V32.092H95.6187V27H80.4187V32.092H72.3627V21.452H75.2507C76.72 20.464 77.4547 18.146 77.4547 14.498ZM84.7887 14.954C84.7887 17.8927 84.358 20.084 83.4967 21.528H90.8687V13.472H84.7887V14.954ZM113.584 27.57C110.899 27.57 108.859 27.0633 107.466 26.05C106.098 25.0113 105.414 23.5167 105.414 21.566C105.414 19.7673 106.085 18.3613 107.428 17.348C108.796 16.3347 111.139 15.828 114.458 15.828C116.485 15.828 118.993 15.904 121.982 16.056V14.954C121.982 14.042 121.691 13.3833 121.108 12.978C120.551 12.5727 119.651 12.37 118.41 12.37C117.194 12.37 116.307 12.522 115.75 12.826C115.193 13.13 114.8 13.7 114.572 14.536H106.06C106.237 11.9267 107.327 10.09 109.328 9.026C111.355 7.962 114.496 7.43 118.752 7.43C122.805 7.43 125.858 8.02533 127.91 9.216C129.962 10.4067 130.988 12.294 130.988 14.878V27H121.982V23.58H121.488C120.12 26.24 117.485 27.57 113.584 27.57ZM117.65 23.162C118.917 23.162 119.955 22.8833 120.766 22.326C121.577 21.7687 121.982 20.882 121.982 19.666V19.134C119.854 19.0327 118.511 18.982 117.954 18.982C116.51 18.982 115.547 19.172 115.066 19.552C114.585 19.932 114.344 20.4387 114.344 21.072C114.344 22.4653 115.446 23.162 117.65 23.162ZM136.079 18.108V8H159.107V27H150.101V13.548H144.287V17.196C144.287 20.7427 143.667 23.2887 142.425 24.834C141.209 26.3793 138.967 27.152 135.699 27.152H133.419V21.566C134.433 21.566 135.129 21.3253 135.509 20.844C135.889 20.3627 136.079 19.4507 136.079 18.108ZM188.903 8L181.569 16.778L189.587 27H179.403L174.083 19.096H171.917V27H162.911V8H171.917V17.614L179.023 8H188.903ZM198.565 27.57C195.879 27.57 193.84 27.0633 192.447 26.05C191.079 25.0113 190.395 23.5167 190.395 21.566C190.395 19.7673 191.066 18.3613 192.409 17.348C193.777 16.3347 196.12 15.828 199.439 15.828C201.465 15.828 203.973 15.904 206.963 16.056V14.954C206.963 14.042 206.671 13.3833 206.089 12.978C205.531 12.5727 204.632 12.37 203.391 12.37C202.175 12.37 201.288 12.522 200.731 12.826C200.173 13.13 199.781 13.7 199.553 14.536H191.041C191.218 11.9267 192.307 10.09 194.309 9.026C196.335 7.962 199.477 7.43 203.733 7.43C207.786 7.43 210.839 8.02533 212.891 9.216C214.943 10.4067 215.969 12.294 215.969 14.878V27H206.963V23.58H206.469C205.101 26.24 202.466 27.57 198.565 27.57ZM202.631 23.162C203.897 23.162 204.936 22.8833 205.747 22.326C206.557 21.7687 206.963 20.882 206.963 19.666V19.134C204.835 19.0327 203.492 18.982 202.935 18.982C201.491 18.982 200.528 19.172 200.047 19.552C199.565 19.932 199.325 20.4387 199.325 21.072C199.325 22.4653 200.427 23.162 202.631 23.162Z" fill="black"/>
</svg>
