<svg width="357" height="58" viewBox="0 0 357 58" fill="none" xmlns="http://www.w3.org/2000/svg">
<path d="M43.144 28.272H59.016C58.504 32.9653 57.3947 36.6133 55.688 39.216C53.9813 41.776 51.08 43.7173 46.984 45.04C42.9307 46.32 37.2133 46.96 29.832 46.96C24.2853 46.96 19.6987 46.6187 16.072 45.936C12.4453 45.2107 9.39467 43.9733 6.92 42.224C4.44533 40.432 2.67467 38.064 1.608 35.12C0.541334 32.176 0.00800014 28.464 0.00800014 23.984C0.00800014 19.376 0.562667 15.5787 1.672 12.592C2.824 9.56266 4.65867 7.19466 7.176 5.488C9.736 3.73867 12.7867 2.544 16.328 1.904C19.912 1.22133 24.4133 0.879997 29.832 0.879997C36.7867 0.879997 42.2693 1.47733 46.28 2.672C50.2907 3.824 53.2347 5.65866 55.112 8.176C56.9893 10.6507 58.184 14.1067 58.696 18.544H42.888C42.504 15.856 41.3733 14.0853 39.496 13.232C37.6187 12.336 34.3973 11.888 29.832 11.888C27.0587 11.888 24.8827 12.016 23.304 12.272C21.768 12.528 20.3813 13.0827 19.144 13.936C17.9067 14.7467 17.0533 15.9627 16.584 17.584C16.1147 19.1627 15.88 21.296 15.88 23.984C15.88 26.544 16.1147 28.6133 16.584 30.192C17.0533 31.7707 17.8853 32.9867 19.08 33.84C20.3173 34.6933 21.7253 35.2693 23.304 35.568C24.9253 35.824 27.1013 35.952 29.832 35.952C34.4827 35.952 37.7893 35.44 39.752 34.416C41.7147 33.392 42.8453 31.344 43.144 28.272ZM67.26 31.024V14H106.044V46H90.876V23.344H81.084V29.488C81.084 35.4613 80.0387 39.7493 77.948 42.352C75.9 44.9547 72.124 46.256 66.62 46.256H62.78V36.848C64.4867 36.848 65.66 36.4427 66.3 35.632C66.94 34.8213 67.26 33.2853 67.26 31.024ZM125.186 46.96C120.663 46.96 117.229 46.1067 114.882 44.4C112.578 42.6507 111.426 40.1333 111.426 36.848C111.426 33.8187 112.557 31.4507 114.818 29.744C117.122 28.0373 121.069 27.184 126.658 27.184C130.071 27.184 134.295 27.312 139.33 27.568V25.712C139.33 24.176 138.839 23.0667 137.858 22.384C136.919 21.7013 135.405 21.36 133.314 21.36C131.266 21.36 129.773 21.616 128.834 22.128C127.895 22.64 127.234 23.6 126.85 25.008H112.514C112.813 20.6133 114.647 17.52 118.018 15.728C121.431 13.936 126.722 13.04 133.89 13.04C140.717 13.04 145.858 14.0427 149.314 16.048C152.77 18.0533 154.498 21.232 154.498 25.584V46H139.33V40.24H138.498C136.194 44.72 131.757 46.96 125.186 46.96ZM132.034 39.536C134.167 39.536 135.917 39.0667 137.282 38.128C138.647 37.1893 139.33 35.696 139.33 33.648V32.752C135.746 32.5813 133.485 32.496 132.546 32.496C130.114 32.496 128.493 32.816 127.682 33.456C126.871 34.096 126.466 34.9493 126.466 36.016C126.466 38.3627 128.322 39.536 132.034 39.536ZM201.857 46H187.329V30.192L171.137 46H160.513V14H175.105V29.744L190.721 14H201.857V46ZM181.121 10.608C176.47 10.608 173.057 9.88266 170.881 8.432C168.705 6.93866 167.617 4.54933 167.617 1.264H176.385C176.385 2.50133 176.747 3.35467 177.473 3.824C178.198 4.29333 179.414 4.528 181.121 4.528C182.87 4.528 184.107 4.29333 184.833 3.824C185.601 3.35467 185.985 2.50133 185.985 1.264H194.753C194.753 4.54933 193.643 6.93866 191.425 8.432C189.249 9.88266 185.814 10.608 181.121 10.608ZM214.087 24.944V14H251.847V36.656H258.183V54.576H244.679V46H219.079V54.576H205.511V36.656H210.375C212.849 34.992 214.087 31.088 214.087 24.944ZM226.439 25.712C226.439 30.6613 225.713 34.352 224.263 36.784H236.679V23.216H226.439V25.712ZM305.1 27.568V31.792H275.852V31.856C275.894 34.2453 276.534 35.9307 277.772 36.912C279.009 37.8507 280.886 38.32 283.404 38.32C287.372 38.32 289.654 37.168 290.252 34.864H305.1C304.801 39.3013 302.881 42.4373 299.34 44.272C295.841 46.064 290.508 46.96 283.34 46.96C275.446 46.96 269.686 45.7227 266.06 43.248C262.476 40.7307 260.684 36.3787 260.684 30.192C260.684 23.8347 262.476 19.3973 266.06 16.88C269.644 14.32 275.382 13.04 283.276 13.04C290.614 13.04 296.076 14.192 299.66 16.496C303.286 18.7573 305.1 22.448 305.1 27.568ZM275.852 27.632V27.824H290.188C290.188 25.6053 289.59 24.0267 288.396 23.088C287.244 22.1493 285.494 21.68 283.148 21.68C278.497 21.68 276.065 23.664 275.852 27.632ZM339.63 46.96C332.632 46.96 328.302 44.3787 326.638 39.216H325.806V57.52H310.638V14H325.806V20.784H326.638C328.302 15.6213 332.632 13.04 339.63 13.04C345.262 13.04 349.4 14.2987 352.046 16.816C354.691 19.3333 356.014 23.7707 356.014 30.128C356.014 36.4427 354.691 40.8373 352.046 43.312C349.4 45.744 345.262 46.96 339.63 46.96ZM332.91 21.808C328.174 21.808 325.806 23.8773 325.806 28.016V31.984C325.806 36.1227 328.174 38.192 332.91 38.192C335.811 38.192 337.859 37.6587 339.054 36.592C340.248 35.4827 340.846 33.328 340.846 30.128C340.846 26.8427 340.227 24.6453 338.99 23.536C337.795 22.384 335.768 21.808 332.91 21.808Z" fill="black"/>
</svg>
